<svg width="208" height="40" viewBox="0 0 208 40" fill="none" xmlns="http://www.w3.org/2000/svg">
<g clip-path="url(#clip0_95_2411)">
<path d="M120.654 34.9925H123.869V15.2299H128.386C130.302 15.2299 131.124 16.8654 131.124 18.2974V34.9925H134.337V18.2958C134.337 16.9332 135.091 15.2283 137.007 15.2283H138.435C138.95 15.219 139.461 15.3118 139.94 15.5011C140.966 15.8418 141.582 16.7265 141.582 18.2942V34.9925H144.804V18.2958C144.804 15.1621 142.614 12.5031 139.467 12.5031H137.684C137.136 12.5709 136.589 12.5709 136.11 12.7081C135.153 12.9132 134.328 13.3894 133.517 14.2758L133.031 14.8893L132.485 14.2758C131.967 13.7063 131.332 13.2533 130.624 12.9471C129.917 12.6409 129.151 12.4884 128.38 12.4999H120.649L120.654 34.9925ZM91.1006 34.9925H94.3145V15.2299H99.4456C101.361 15.2299 102.183 16.8654 102.183 18.2974V34.9925H105.398V18.2958C105.398 15.0249 103.073 12.5031 99.7892 12.5031H91.1006V34.9925ZM111.419 34.9925H114.635V12.5031H111.419V34.9925ZM150.823 28.8576C150.823 33.8333 153.355 34.9925 158.278 34.9925C163.14 34.9925 165.733 33.7655 165.733 28.8576V18.2958C165.733 15.1621 163.544 12.5031 160.397 12.5031H156.1C152.953 12.5031 150.831 15.1621 150.831 18.2958L150.823 28.8576ZM156.844 32.1979C156.373 32.2124 155.905 32.119 155.476 31.925C154.518 31.4407 154.04 30.5608 154.04 29.1982V18.2958C154.04 16.9332 154.792 15.2283 156.708 15.2283H159.787C161.703 15.2283 162.524 16.8637 162.524 18.2958V29.2063C162.524 30.5689 162.038 31.4552 161.087 31.9331C160.658 32.1271 160.19 32.2204 159.719 32.206C158.763 32.2964 157.801 32.2964 156.846 32.206M183.047 33.4313L183.321 35.2718L186.263 34.7956C186.059 33.2957 186.059 31.7281 186.059 30.2282V4.6665H182.841V12.5031H176.753C173.604 12.5031 171.416 15.1605 171.416 18.2958V29.2063C171.416 32.2738 173.401 34.999 176.411 34.999C178.428 34.99 180.425 34.5971 182.294 33.8414L183.047 33.4313ZM182.841 31.2454L182.355 31.381C180.782 31.8653 179.072 32.2673 177.362 32.2673C175.172 32.2673 174.694 30.154 174.694 28.8592V18.2958C174.694 16.8654 175.446 15.2283 177.362 15.2283H182.841V31.2454ZM82.4121 33.4943L82.7541 35.2702L85.6956 34.7939C85.0798 29.3419 85.0117 23.8156 84.7378 18.37C84.6001 15.1605 82.6828 12.5031 79.4706 12.5031H70.782V29.2063C70.782 32.2738 72.7658 34.999 75.7754 34.999C77.7591 34.999 79.8125 34.6583 81.5904 33.8414L82.4121 33.4943ZM82.0702 31.3132L81.5224 31.4488C79.9537 31.9696 78.3136 32.2457 76.6603 32.2673C74.5388 32.2673 73.9926 30.0862 73.9926 28.8592V15.2299H78.8547C80.7007 15.2299 81.4478 17.0058 81.5224 18.2974L82.0702 31.3132ZM59.152 19.2499L61.3399 18.433C62.6365 18.0245 63.2556 16.7281 63.2556 15.2299V10.4592C63.2556 7.3239 61.0676 4.6665 57.9202 4.6665H48V28.8592C48 34.3112 51.3516 34.9941 56.6885 34.9941C61.9558 34.9941 65.377 34.3128 65.377 28.8592V24.4291C65.377 22.2496 63.6672 20.2041 61.4777 19.7278L59.152 19.2499ZM51.2106 22.0445H59.4242C61.3399 22.0445 62.1616 23.68 62.1616 25.112V29.5405C62.1616 31.2454 60.9979 31.9267 59.8359 32.1236C59.273 32.2374 58.6984 32.2835 58.1245 32.2609H55.1829C54.632 32.2833 54.0805 32.2373 53.5411 32.1236C52.3094 31.9202 51.2155 31.2389 51.2155 29.5405L51.2106 22.0445ZM51.2106 19.3193V7.3239L57.2995 7.39171C59.2152 7.39171 59.9672 9.09658 59.9672 10.4592V16.2519C59.9672 17.6823 59.2152 19.3193 57.2995 19.3193H51.2106ZM195.634 27.1559H206.376V12.5031H197.687C194.54 12.5031 192.35 15.1621 192.35 18.2958V28.5185C192.35 33.1537 194.472 35.3332 199.191 35.3332C201.928 35.3332 204.596 35.2654 207.333 35.0619V32.3351C204.596 32.4707 201.928 32.608 199.191 32.608C197.207 32.608 195.625 31.381 195.625 29.1998L195.634 27.1559ZM195.634 24.7698V18.2958C195.634 16.8654 196.387 15.2283 198.303 15.2283H203.165V24.7681L195.634 24.7698ZM111.207 7.73398H114.772V4.6665H111.207V7.73398Z" fill="#000"/>
</g>
<g clip-path="url(#clip1_95_2411)">
<path fill-rule="evenodd" clip-rule="evenodd" d="M39.8903 13.6543C39.6997 12.486 39.1963 11.3906 38.433 10.4837C37.6698 9.57678 36.6751 8.89204 35.554 8.50169L23.5145 4.13667L15.7648 1.32373L17.3021 10.1266C18.4384 10.1508 19.5562 10.417 20.5808 10.9073C21.6053 11.3976 22.5127 12.1007 23.2422 12.9693C26.1873 16.4673 25.5664 21.3783 22.1299 24.2674L13.3576 31.6141C13.0144 31.8996 12.5718 32.0382 12.1265 31.9998C11.6811 31.9614 11.2691 31.749 10.9802 31.409C10.7488 31.1062 10.6021 30.7476 10.5552 30.3698L6.52434 7.28054C6.47551 7.05885 6.47223 6.8296 6.5147 6.60661C6.55716 6.38362 6.64449 6.17151 6.77141 5.98307C6.89834 5.79462 7.06224 5.63375 7.25323 5.51014C7.44422 5.38653 7.65834 5.30274 7.88269 5.26383C8.10705 5.22493 8.33698 5.2317 8.55863 5.28375C8.78029 5.3358 8.98907 5.43204 9.1724 5.56668C9.35573 5.70132 9.50981 5.87156 9.62535 6.06715C9.74089 6.26274 9.81549 6.47962 9.84467 6.70472L13.4173 27.1763L19.9717 21.6927C21.9871 20.0083 22.3822 17.1887 20.659 15.1402C19.9332 14.2814 18.917 13.7173 17.8023 13.5545C16.6877 13.3917 15.5518 13.6415 14.6093 14.2566C13.9585 10.5347 13.3067 6.81282 12.6537 3.09092L9.06107 1.78704C7.95127 1.36739 6.74832 1.25442 5.5794 1.46005C4.41048 1.66568 3.31903 2.18228 2.42041 2.95524C1.50129 3.70272 0.801503 4.68348 0.394791 5.79416C-0.0119214 6.90485 -0.110492 8.10431 0.109467 9.26615L2.32413 21.8416L4.54874 34.4171C4.73885 35.5853 5.24219 36.6805 6.00552 37.5869C6.76885 38.4934 7.76379 39.1773 8.88509 39.5665C9.99489 39.9861 11.1978 40.0991 12.3668 39.8935C13.5357 39.6878 14.6271 39.1712 15.5257 38.3983L19.8687 34.758L27.7678 28.179L34.1129 22.8841L35.1688 22.0038L37.5827 19.9851C38.5043 19.2353 39.2053 18.251 39.6115 17.1366C40.0177 16.0221 40.1141 14.8189 39.8903 13.6543Z" fill="#26AF6E"/>
<path fill-rule="evenodd" clip-rule="evenodd" d="M12.1157 0C12.2983 1.05568 12.4677 2.03525 12.6536 3.09093L12.1157 0Z" fill="white"/>
</g>
<defs>
<clipPath id="clip0_95_2411">
<rect width="159.333" height="30.6667" fill="white" transform="translate(48 4.6665)"/>
</clipPath>
<clipPath id="clip1_95_2411">
<rect width="40" height="40" fill="white"/>
</clipPath>
</defs>
</svg>
